<svg width="126" height="38" viewBox="0 0 126 38" fill="none" xmlns="http://www.w3.org/2000/svg">
<g id="Logo">
<path id="Vector" d="M15 10.5C12.2697 10.5 10 8.26316 10 5.5C10 2.76974 12.2368 0.5 15 0.5C17.7303 0.5 20 2.73684 20 5.5C20 8.26316 17.7632 10.5 15 10.5Z" fill="#0FAFE9"/>
<path id="Vector_2" d="M0 27.3271C0 32.9122 4.49179 37.5 9.99998 37.5C15.5082 37.5 20 32.9455 20 27.3604V12.5C20.0327 12.5 0 14.7606 0 27.3271ZM9.99998 30.0199C8.55736 30.0199 7.37703 28.8231 7.37703 27.3604C7.37703 25.8976 8.55736 24.7008 9.99998 24.7008C11.4426 24.7008 12.6229 25.8976 12.6229 27.3604C12.6557 28.8231 11.4754 30.0199 9.99998 30.0199Z" fill="#0FAFE9"/>
<g id="DugiLan">
<path d="M42.1292 21.3713C42.1292 23.0389 41.763 24.5221 41.0306 25.8209C40.3145 27.1037 39.2729 28.1059 37.9057 28.8275C36.5549 29.549 34.9599 29.9098 33.1208 29.9098H26.6025V12.905H33.1208C34.9762 12.905 36.5793 13.2577 37.9301 13.9633C39.281 14.6688 40.3145 15.6629 41.0306 16.9457C41.763 18.2285 42.1292 19.7037 42.1292 21.3713ZM32.7546 26.2298C34.3821 26.2298 35.6435 25.8049 36.5386 24.9551C37.45 24.1052 37.9057 22.9106 37.9057 21.3713C37.9057 19.832 37.45 18.6374 36.5386 17.7875C35.6435 16.9377 34.3821 16.5128 32.7546 16.5128H30.7772V26.2298H32.7546Z" fill="#0FAFE9"/>
<path d="M57.9756 16.4887V29.9098H53.7765V27.4805C53.3859 28.2662 52.8 28.8916 52.0188 29.3566C51.2539 29.8216 50.3587 30.0541 49.3334 30.0541C47.771 30.0541 46.5259 29.541 45.5982 28.5148C44.6868 27.4886 44.2311 26.0775 44.2311 24.2816V16.4887H48.3813V23.7765C48.3813 24.6905 48.6173 25.404 49.0893 25.9172C49.5775 26.4142 50.2285 26.6628 51.0423 26.6628C51.8886 26.6628 52.5559 26.3982 53.0442 25.869C53.5324 25.3399 53.7765 24.5863 53.7765 23.6081V16.4887H57.9756Z" fill="#0FAFE9"/>
<path d="M65.9477 16.3204C66.9893 16.3204 67.8844 16.5529 68.6331 17.0179C69.3817 17.4829 69.9351 18.1163 70.2932 18.918V16.4887H74.4434V29.8376C74.4434 31.0884 74.1992 32.2108 73.711 33.2049C73.2227 34.2151 72.4741 35.0169 71.465 35.6102C70.4559 36.2034 69.2027 36.5001 67.7054 36.5001C65.6547 36.5001 64.0109 36.019 62.774 35.057C61.5533 34.1109 60.8209 32.8201 60.5768 31.1846H64.7026C64.8328 31.7297 65.1258 32.1547 65.5815 32.4593C66.0534 32.764 66.6638 32.9163 67.4124 32.9163C68.275 32.9163 68.9667 32.6678 69.4875 32.1707C70.0246 31.6897 70.2932 30.912 70.2932 29.8376V27.4805C69.9351 28.2823 69.3817 28.9156 68.6331 29.3807C67.8844 29.8457 66.9893 30.0782 65.9477 30.0782C64.8247 30.0782 63.8156 29.8056 62.9205 29.2604C62.0416 28.6992 61.3417 27.8974 60.8209 26.8552C60.3164 25.8129 60.0641 24.5943 60.0641 23.1993C60.0641 21.7882 60.3164 20.5696 60.8209 19.5433C61.3417 18.5011 62.0416 17.7074 62.9205 17.1622C63.8156 16.601 64.8247 16.3204 65.9477 16.3204ZM67.2904 19.9282C66.3952 19.9282 65.671 20.2168 65.1176 20.7941C64.5805 21.3713 64.312 22.173 64.312 23.1993C64.312 24.2255 64.5805 25.0272 65.1176 25.6045C65.671 26.1817 66.3952 26.4704 67.2904 26.4704C68.1692 26.4704 68.8853 26.1737 69.4387 25.5804C70.0083 24.9871 70.2932 24.1934 70.2932 23.1993C70.2932 22.1891 70.0083 21.3954 69.4387 20.8181C68.8853 20.2248 68.1692 19.9282 67.2904 19.9282Z" fill="#0FAFE9"/>
<path d="M76.8464 12.7125C76.8464 12.0872 77.0743 11.5741 77.53 11.1732C77.9857 10.7563 78.5879 10.5479 79.3366 10.5479C80.0852 10.5479 80.6874 10.7563 81.1431 11.1732C81.5988 11.5741 81.8267 12.0872 81.8267 12.7125C81.8267 13.3219 81.5988 13.835 81.1431 14.2519C80.6874 14.6527 80.0852 14.8532 79.3366 14.8532C78.5879 14.8532 77.9857 14.6527 77.53 14.2519C77.0743 13.835 76.8464 13.3219 76.8464 12.7125ZM81.4117 16.4887V29.9098H77.237V16.4887H81.4117Z" fill="#0FAFE9"/>
<path d="M88.388 26.759H93.9541V29.9098H84.2133V12.905H88.388V26.759Z" fill="#0FAFE9"/>
<path d="M100.966 16.3204C102.008 16.3204 102.903 16.5529 103.652 17.0179C104.401 17.4829 104.954 18.1163 105.312 18.918V16.4887H109.462V29.9098H105.312V27.4805C104.954 28.2823 104.401 28.9156 103.652 29.3807C102.903 29.8457 102.008 30.0782 100.966 30.0782C99.8435 30.0782 98.8344 29.8056 97.9393 29.2604C97.0604 28.6992 96.3605 27.8974 95.8397 26.8552C95.3352 25.8129 95.0829 24.5943 95.0829 23.1993C95.0829 21.7882 95.3352 20.5696 95.8397 19.5433C96.3605 18.5011 97.0604 17.7074 97.9393 17.1622C98.8344 16.601 99.8435 16.3204 100.966 16.3204ZM102.309 19.9282C101.414 19.9282 100.69 20.2168 100.136 20.7941C99.5993 21.3713 99.3308 22.173 99.3308 23.1993C99.3308 24.2255 99.5993 25.0272 100.136 25.6045C100.69 26.1817 101.414 26.4704 102.309 26.4704C103.188 26.4704 103.904 26.1737 104.458 25.5804C105.027 24.9871 105.312 24.1934 105.312 23.1993C105.312 22.1891 105.027 21.3954 104.458 20.8181C103.904 20.2248 103.188 19.9282 102.309 19.9282Z" fill="#0FAFE9"/>
<path d="M120.898 16.3444C122.46 16.3444 123.697 16.8575 124.609 17.8837C125.536 18.91 126 20.321 126 22.1169V29.9098H121.826V22.598C121.826 21.7 121.582 21.0025 121.093 20.5054C120.621 19.9923 119.987 19.7358 119.189 19.7358C118.343 19.7358 117.667 20.0003 117.163 20.5295C116.675 21.0586 116.43 21.8123 116.43 22.7904V29.9098H112.256V16.4887H116.43V18.942C116.821 18.1403 117.399 17.5069 118.164 17.0419C118.945 16.5769 119.856 16.3444 120.898 16.3444Z" fill="#0FAFE9"/>
</g>
</g>
</svg>
